<?xml version="1.0" encoding="utf-8"?>
<svg version="1.1" xmlns:xlink="http://www.w3.org/1999/xlink" width="36px" height="35px" xmlns="http://www.w3.org/2000/svg">
  <g transform="matrix(1 0 0 1 -256 -780 )">
    <path d="M 35 28.4285714453125  C 35.1428571484375 31.57142859375  32.5714285546875 34.1428571484375  29.4285714453125 34  L 6.5714285546875 34  C 3.42857140625 34.1428571484375  0.8571428515625 31.57142859375  1 28.4285714453125  L 1 13.4285714453125  C 0.8571428515625 11.57142859375  1.714285703125 9.857142890625  3.285714296875 8.8571428515625  L 14.714285703125 1  C 16.714285703125 -0.285714296874999  19.2857142578125 -0.285714296874999  21.1428571484375 1  L 32.5714285546875 8.8571428515625  C 34.142857109375 9.8571428515625  35 11.714285703125  35 13.5714285546875  L 35 28.4285714453125  Z M 16 2.5714285546875  L 4.5714285546875 10.5714285546875  C 3.5714285546875 11.2857142578125  3 12.2857142578125  3 13.5714285546875  L 3 28.4285714453125  C 3 30.4285714453125  4.5714285546875 32  6.5714285546875 32  L 29.4285714453125 32  C 31.4285714453125 32  33 30.4285714453125  33 28.4285714453125  L 33 13.4285714453125  C 33 12.285714296875  32.4285714453125 11.1428571484375  31.4285714453125 10.4285714453125  L 20 2.5714285546875  C 18.8571428515625 1.714285703125  17.1428571484375 1.714285703125  16 2.5714285546875  Z " fill-rule="nonzero" fill="#0099ff" stroke="none" transform="matrix(1 0 0 1 256 780 )" />
  </g>
</svg>