<svg t="1624356583300" class="icon" viewBox="0 0 1024 1024" version="1.1" xmlns="http://www.w3.org/2000/svg" p-id="19841" width="128" height="128"><path d="M695.557219 1023.998996a178.785504 178.785504 0 0 1-64.784635-12.052956l-286.257689-112.494249a105.463359 105.463359 0 0 0-71.313319 0l-176.776678 60.264776a63.278015 63.278015 0 0 1-56.247125-7.533097 50.220647 50.220647 0 0 1-21.594878-41.683137v-293.288579a38.167692 38.167692 0 0 1 37.665485-37.665486 38.167692 38.167692 0 0 1 37.665486 37.665486v263.156191l155.181799-53.233886a180.292123 180.292123 0 0 1 121.03176 2.511032l286.759895 111.992043a104.458946 104.458946 0 0 0 77.842003 0l164.723723-73.322145c18.079433-7.533097 29.127975-20.590465 29.127976-32.141214v-218.962021a37.665485 37.665485 0 0 1 75.33097 0v217.455402a113.498663 113.498663 0 0 1-73.824351 100.441294l-163.217103 73.824351a173.261233 173.261233 0 0 1-71.313319 15.066195zM512.251857 457.510096A107.472185 107.472185 0 0 1 404.779672 351.54453v-34.15004a107.472185 107.472185 0 1 1 214.442163 0V351.54453a107.472185 107.472185 0 0 1-106.969978 105.965566z m0-172.25682a32.141214 32.141214 0 0 0-32.141215 32.141214V351.54453a32.141214 32.141214 0 0 0 32.141215 32.141214 32.141214 32.141214 0 0 0 31.639007-32.141214v-34.15004a32.141214 32.141214 0 0 0-31.639007-32.141214z" fill="#515151" p-id="19842"></path><path d="M512.251857 732.719242h-4.017652a50.220647 50.220647 0 0 1-32.643421-16.572814l-47.207408-45.700788a3155.865468 3155.865468 0 0 1-100.441295-100.441295A470.065257 470.065257 0 0 1 224.487548 401.765177a327.438619 327.438619 0 0 1 16.572814-233.023803A294.292992 294.292992 0 0 1 506.727585 0h10.04413a297.306231 297.306231 0 0 1 257.63192 150.661941 327.940826 327.940826 0 0 1 18.581639 270.187082 514.761633 514.761633 0 0 1-115.005282 166.230342c-41.683137 44.696376-84.872894 88.388339-129.067063 129.56927a55.242712 55.242712 0 0 1-36.661072 16.070607z m0-657.388271A219.966435 219.966435 0 0 0 309.360442 200.882589a251.103236 251.103236 0 0 0-12.555162 178.283297 397.747526 397.747526 0 0 0 88.890546 142.626638c30.132388 33.145627 63.278015 65.286841 94.917023 95.921436l31.639008 30.634595c38.167692-36.158866 75.330971-73.824351 110.98763-111.992043a455.50127 455.50127 0 0 0 100.441294-141.120019 254.116475 254.116475 0 0 0-14.061781-206.909066A223.48188 223.48188 0 0 0 514.260682 75.330971z" fill="#515151" p-id="19843"></path></svg>