<?xml version="1.0" encoding="utf-8"?>
<svg version="1.1" xmlns:xlink="http://www.w3.org/1999/xlink" width="11px" height="9px" xmlns="http://www.w3.org/2000/svg">
  <g transform="matrix(1 0 0 1 -548 -799 )">
    <path d="M 2.6125 8.38828125  C 2.4015625 8.694140625  2.061328125 8.85859375  1.716015625 8.85859375  C 1.502734375 8.85859375  1.287109375 8.79609375  1.09765625 8.665625  C 0.602734375000001 8.323828125  0.478515625 7.64609375  0.8203125 7.150390625  C 2.43671875 4.80859375  4.634765625 2.904296875  7.1765625 1.643359375  C 7.733984375 1.366796875  8.3109375 1.119921875  8.89296875 0.908203124999996  C 9.462890625 0.702734374999999  10.083203125 0.994531249999998  10.2890625 1.559765625  C 10.494140625 2.12539062499999  10.202734375 2.75  9.6375 2.955859375  C 9.12823048204412 3.14082996062077  8.62967028133373 3.35405149558323  8.144140625 3.59453125  C 5.9328125 4.69140625  4.019921875 6.348828125  2.6125 8.38828125  Z " fill-rule="nonzero" fill="#333333" stroke="none" transform="matrix(1 0 0 1 548 799 )" />
  </g>
</svg>