<?xml version="1.0" standalone="no"?><!DOCTYPE svg PUBLIC "-//W3C//DTD SVG 1.1//EN" "http://www.w3.org/Graphics/SVG/1.1/DTD/svg11.dtd"><svg t="1752481645811" class="icon" viewBox="0 0 1024 1024" version="1.1" xmlns="http://www.w3.org/2000/svg" p-id="4408" xmlns:xlink="http://www.w3.org/1999/xlink" width="200" height="200"><path d="M120.2 873.3h721.5v55H120.2zM484 98.2c-100.8 0-182.4 81.7-182.4 182.4C301.6 381.4 383.3 463 484 463c100.8 0 182.4-81.7 182.4-182.4 0.1-100.8-81.6-182.4-182.4-182.4z m0 310.2c-70.6 0-127.8-57.2-127.8-127.8S413.4 152.8 484 152.8 611.8 210 611.8 280.6c0.1 70.6-57.2 127.8-127.8 127.8z" fill="#2680F0" p-id="4409"></path><path d="M485.9 603.7c180.6 0 327 145.1 328.5 324.6h46.8c-1.5-208.7-171.7-377.5-381.6-377.5-209.9 0-380.1 168.8-381.6 377.5h59.4c1.5-179.5 147.9-324.6 328.5-324.6z" fill="#2680F0" p-id="4410"></path></svg>