<?xml version="1.0" encoding="utf-8"?>
<svg version="1.1" xmlns:xlink="http://www.w3.org/1999/xlink" width="110px" height="88px" xmlns="http://www.w3.org/2000/svg">
  <g transform="matrix(1 0 0 1 -129 -73 )">
    <path d="M 33.4583333333333 17.875  C 35.5972222222222 20.0138888888889  36.6666666666667 22.6111111111111  36.6666666666667 25.6666666666667  C 36.6666666666667 28.7222222222222  35.5972222222222 31.3194444444444  33.4583333333333 33.4583333333333  C 31.3194444444445 35.5972222222222  28.7222222222222 36.6666666666667  25.6666666666667 36.6666666666667  C 22.6111111111111 36.6666666666667  20.0138888888889 35.5972222222222  17.875 33.4583333333333  C 15.7361111111111 31.3194444444444  14.6666666666667 28.7222222222222  14.6666666666667 25.6666666666667  C 14.6666666666667 22.6111111111111  15.7361111111111 20.0138888888889  17.875 17.875  C 20.0138888888889 15.7361111111111  22.6111111111111 14.6666666666667  25.6666666666667 14.6666666666667  C 28.7222222222222 14.6666666666667  31.3194444444445 15.7361111111111  33.4583333333333 17.875  Z M 71.5 23.8333333333333  L 95 47.6666666666667  L 95 73  L 15 73  L 15 62.3333333333333  L 33 44  L 42.1666666666667 53.1666666666667  L 71.5 23.8333333333333  Z M 102.122395833333 7.87760416666666  C 101.759548611111 7.51475694444444  101.329861111111 7.33333333333334  100.833333333333 8  L 9.16666666666667 8  C 8.67013888888889 7.33333333333334  8.24045138888889 7.51475694444444  7.87760416666667 7.87760416666666  C 7.51475694444445 8.24045138888888  7.33333333333333 8.67013888888888  8 9.16666666666666  L 8 78.8333333333333  C 7.33333333333333 79.3298611111111  7.51475694444445 79.7595486111111  7.87760416666667 80.1223958333333  C 8.24045138888889 80.4852430555556  8.67013888888889 80.6666666666667  9.16666666666667 80  L 100.833333333333 80  C 101.329861111111 80.6666666666667  101.759548611111 80.4852430555556  102.122395833333 80.1223958333333  C 102.485243055556 79.7595486111111  102.666666666667 79.3298611111111  102 78.8333333333333  L 102 9.16666666666666  C 102.666666666667 8.67013888888888  102.485243055556 8.24045138888888  102.122395833333 7.87760416666666  Z M 107.307291666667 2.69270833333334  C 109.102430555556 4.48784722222222  110 6.64583333333334  110 9.16666666666666  L 110 78.8333333333333  C 110 81.3541666666667  109.102430555556 83.5121527777778  107.307291666667 85.3072916666667  C 105.512152777778 87.1024305555556  103.354166666667 88  100.833333333333 88  L 9.16666666666667 88  C 6.64583333333333 88  4.48784722222222 87.1024305555556  2.69270833333333 85.3072916666667  C 0.897569444444445 83.5121527777778  0 81.3541666666667  0 78.8333333333333  L 0 9.16666666666666  C 0 6.64583333333334  0.897569444444445 4.48784722222222  2.69270833333333 2.69270833333334  C 4.48784722222222 0.897569444444436  6.64583333333333 0  9.16666666666667 0  L 100.833333333333 0  C 103.354166666667 0  105.512152777778 0.897569444444436  107.307291666667 2.69270833333334  Z " fill-rule="nonzero" fill="#ffffff" stroke="none" transform="matrix(1 0 0 1 129 73 )" />
  </g>
</svg>