<svg t="1624528176280" class="icon" viewBox="0 0 1024 1024" version="1.1" xmlns="http://www.w3.org/2000/svg" p-id="7871" width="128" height="128"><path d="M772.266667 81.066667h-512c-93.866667 0-170.666667 76.8-170.666667 170.666666v512c0 93.866667 76.8 170.666667 170.666667 170.666667h512c93.866667 0 170.666667-76.8 170.666666-170.666667v-512c0-93.866667-76.8-170.666667-170.666666-170.666666zM738.133333 640l-115.2 98.133333H349.866667c-29.866667 0-55.466667-25.6-55.466667-55.466666V354.133333C298.666667 324.266667 320 298.666667 354.133333 298.666667H682.666667c29.866667 0 55.466667 25.6 55.466666 55.466666V640z" fill="#22D7BB" p-id="7872"></path><path d="M635.733333 456.533333c-8.533333-8.533333-21.333333-8.533333-29.866666-4.266666l-102.4 85.333333-55.466667-64c-8.533333-8.533333-21.333333-8.533333-29.866667 0-8.533333 8.533333-8.533333 21.333333 0 29.866667l68.266667 81.066666c4.266667 4.266667 8.533333 8.533333 17.066667 8.533334 4.266667 0 8.533333 0 12.8-4.266667l115.2-98.133333c8.533333-12.8 12.8-25.6 4.266666-34.133334z" fill="#22D7BB" p-id="7873"></path></svg>