<svg t="1625625896325" class="icon" viewBox="0 0 1024 1024" version="1.1" xmlns="http://www.w3.org/2000/svg" p-id="17581" width="128" height="128"><path d="M474.112 992.768L108.8 776.96c-19.968-11.776-32-33.28-31.744-56.32l4.352-424.192c0.256-23.04 12.8-44.288 33.024-55.808l369.664-208.384c20.224-11.264 44.8-11.008 64.768 0.768l365.312 215.808c19.968 11.776 32 33.28 31.744 56.32l-4.352 424.192c-0.256 23.04-12.8 44.288-33.024 55.808l-369.664 208.384c-20.224 11.264-44.8 11.008-64.768-0.768z" fill="#EB5F5B" p-id="17582"></path><path d="M507.904 653.312v-6.656c0-1.792 0-3.84 0.512-6.144h-106.752c-7.424 0-13.824-2.56-19.2-7.936-5.376-5.12-8.192-12.288-7.936-19.712 0-7.68 2.56-14.336 7.936-19.968s11.776-8.192 19.2-8.192H527.36c10.752-17.408 25.6-31.744 43.52-41.984 18.176-10.496 38.656-15.872 59.392-15.616 2.304 0 4.864 0 7.424 0.256 2.56 0 5.12 0.256 7.936 0.768V417.28h-63.232c-8.192 0-15.104-1.792-20.736-5.632-5.632-3.584-10.496-8.192-14.08-13.824-3.584-5.632-6.4-11.52-7.936-18.176-1.536-5.888-2.56-12.032-2.56-18.432v-55.808h-200.448c-4.352 0-8.448 1.792-11.52 4.864-3.072 3.072-4.864 7.424-4.864 11.776v386.304c0 4.352 1.536 8.448 4.864 11.776 3.072 3.328 7.424 4.864 11.52 4.864h193.024c-6.912-10.24-12.288-21.504-15.872-33.28-4.096-12.544-5.888-25.344-5.888-38.4z m-125.696-172.544c5.12-5.12 12.032-8.192 19.2-7.936h162.048c7.424 0 13.824 2.56 19.2 7.936 5.376 5.376 7.936 12.032 7.936 19.712s-2.56 14.336-7.936 19.968c-4.864 5.376-12.032 8.448-19.2 8.192h-162.048c-7.424 0-13.824-2.816-19.2-8.192-5.376-5.376-8.192-12.544-7.936-19.968 0-7.68 2.56-14.336 7.936-19.712z m214.272-92.416c-8.704 0-16.896-3.584-23.04-9.728-6.144-6.4-9.472-14.848-9.472-23.808v-49.664h65.024c4.096 0 8.192 1.536 11.52 4.864 3.072 3.072 4.864 7.424 4.864 11.776v66.304l-48.896 0.256z m122.88 227.584c-4.864-11.52-11.776-22.272-20.48-31.232-8.704-8.96-18.944-16.128-30.208-21.248-11.776-5.12-24.32-7.936-37.12-7.936-13.056 0-25.344 2.56-36.864 7.936-11.264 5.12-21.504 12.288-30.208 21.248-8.704 8.96-15.616 19.2-20.48 31.232-5.12 12.032-7.68 25.088-7.68 38.144 0 13.568 2.56 26.624 7.68 38.4 4.864 11.52 11.776 22.272 20.48 31.232 8.704 8.96 18.688 16.128 30.208 21.248 11.52 5.12 24.064 7.936 36.864 7.936 13.312 0 25.6-2.56 37.12-7.936 11.264-5.12 21.504-12.288 30.208-21.248 8.704-8.96 15.36-19.456 20.48-31.232 5.12-12.288 7.68-25.344 7.68-38.4 0-13.568-2.56-26.368-7.68-38.144z m-71.68 30.72v67.84c0 8.192-6.656 14.848-14.848 14.848-8.192 0-14.848-6.656-14.848-14.848v-67.84h-46.08l61.44-60.672 61.44 60.672H647.68z" fill="#FFFFFF" p-id="17583"></path></svg>