<svg t="1625564015431" class="icon" viewBox="0 0 1024 1024" version="1.1" xmlns="http://www.w3.org/2000/svg" p-id="17770" width="128" height="128"><path d="M582.46 947.95c-8.01 0-15.78-2.74-22.02-7.76l-254.01-204.4H99.03c-9.31 0-18.24-3.7-24.83-10.28a35.146 35.146 0 0 1-10.28-24.83V323.3c0-9.31 3.7-18.24 10.28-24.82a35.104 35.104 0 0 1 24.83-10.28h207.39L560.44 83.8c10.52-8.46 24.98-10.13 37.16-4.3 12.18 5.84 19.94 18.15 19.94 31.65v801.7c0 9.31-3.69 18.24-10.27 24.82a35.1 35.1 0 0 1-24.81 10.28z" fill="#0CB6C3" p-id="17771"></path><path d="M134.14 665.58H318.8c8 0 15.77 2.74 22 7.75l206.55 166.21v-655.1L340.8 350.64c-6.23 5.02-14 7.75-22 7.75H134.14v307.19z" fill="#0CB6C3" p-id="17772"></path><path d="M924.96 547.1H737.03c-19.39 0-35.1-15.71-35.1-35.11 0-19.39 15.72-35.1 35.1-35.1h187.93c19.39 0 35.11 15.71 35.11 35.1 0 19.4-15.72 35.11-35.11 35.11zM900.27 919.53a34.97 34.97 0 0 1-17.35-4.61L719.65 821.9c-16.84-9.59-22.72-31.03-13.12-47.88 9.59-16.84 31.02-22.72 47.87-13.12l163.27 93.01c13.86 7.88 20.66 24.11 16.57 39.51-4.08 15.41-18.03 26.13-33.97 26.11zM737.06 267.72c-15.94 0.01-29.88-10.7-33.97-26.11-4.09-15.4 2.71-31.62 16.56-39.51l163.27-93.03c16.81-9.27 37.94-3.31 47.45 13.36 9.5 16.68 3.85 37.89-12.68 47.62L754.42 263.1a34.913 34.913 0 0 1-17.36 4.62z" fill="#0CB6C3" p-id="17773"></path></svg>