<svg t="1625191213677" class="icon" viewBox="0 0 1024 1024" version="1.1" xmlns="http://www.w3.org/2000/svg" p-id="4069" width="128" height="128"><path d="M511 546.6m-462 0a462 462 0 1 0 924 0 462 462 0 1 0-924 0Z" fill="#33A3F4" p-id="4070"></path><path d="M703 777.4H318.7c-25.8 0-46.5-10.1-56.8-27.7-10.3-17.6-9.1-40.6 3.5-63.1l193.9-347.4c12.6-22.6 31.4-35.6 51.5-35.6s38.8 13 51.5 35.6l194.1 347.5c12.5 22.5 13.8 45.5 3.5 63.1-10.5 17.5-31.2 27.6-56.9 27.6zM510.7 340c-6.4 0-13.7 6.3-19.6 16.9L297.2 704.4c-6.1 10.9-7.5 20.7-3.9 26.9 3.6 6.2 12.9 9.7 25.3 9.7H703c12.5 0 21.7-3.5 25.3-9.7 3.6-6.2 2.2-16-3.9-26.9l-194-347.5c-6-10.6-13.3-16.9-19.7-16.9z" fill="#FFFFFF" p-id="4071"></path><path d="M510.8 612.9c-10.1 0-18.2-8.2-18.2-18.2V430.5c0-10.1 8.2-18.2 18.2-18.2 10.1 0 18.2 8.2 18.2 18.2v164.1c0.1 10.1-8.1 18.3-18.2 18.3zM483.5 676.8c0 15.1 12.2 27.4 27.4 27.4 15.1 0 27.4-12.2 27.4-27.4s-12.2-27.4-27.4-27.4-27.4 12.3-27.4 27.4z" fill="#FFFFFF" p-id="4072"></path></svg>