<svg t="1624528128162" class="icon" viewBox="0 0 1024 1024" version="1.1" xmlns="http://www.w3.org/2000/svg" p-id="7054" width="128" height="128"><path d="M512 0c282.752 0 512 229.248 512 512s-229.248 512-512 512S0 794.752 0 512 229.248 0 512 0z m218.069333 698.794667a51.2 51.2 0 0 0 64-57.429334l-58.666666-370.218666a51.2 51.2 0 0 0-78.549334-34.858667l-214.485333 140.202667-143.146667 22.656a102.058667 102.058667 0 0 0-85.845333 109.952l0.853333 6.954666 8.448 53.461334a102.485333 102.485333 0 0 0 116.992 84.906666l21.674667-3.498666 4.906667 126.72a51.2 51.2 0 0 0 43.136 48.64l4.906666 0.768a38.613333 38.613333 0 0 0 44.629334-39.637334l-5.802667-150.997333 29.653333-4.693333z" fill="#0AC896" p-id="7055"></path></svg>