<svg t="1624528470830" class="icon" viewBox="0 0 1024 1024" version="1.1" xmlns="http://www.w3.org/2000/svg" p-id="14462" width="128" height="128"><path d="M512 8C233.649 8 8 233.649 8 512s225.649 504 504 504 504-225.649 504-504S790.351 8 512 8z m176.678 749.387H335.323a20.112 20.112 0 0 1-14.295-6.032 20.118 20.118 0 0 1-5.758-14.407h-0.035c-0.078-11.174 8.88-20.318 20.053-20.47h353.39a20.125 20.125 0 0 1 20.053 20.471c0.059 11.162-8.893 20.282-20.053 20.438z m51.181-140.992c0 32.706-26.468 59.208-58.65 59.208H342.79c-32.543-0.194-58.785-26.703-58.65-59.244v-2.104c0-33.899 27.133-61.346 60.998-61.346h124.444a831.561 831.561 0 0 0-15.528-55.037c-40.631-20.979-66.201-62.838-66.325-108.566 0-67.762 55.668-122.693 124.271-122.693 68.638 0 124.271 54.931 124.271 122.693-0.112 46.229-26.238 88.456-67.553 109.197a501.95 501.95 0 0 0-15.705 54.406h125.848c16.197-0.036 31.725 6.414 43.188 17.912 11.428 11.535 17.879 27.133 17.81 43.434v2.14z" fill="#f56865" p-id="14463"></path></svg>