<svg t="1623924020387" class="icon" viewBox="0 0 1024 1024" version="1.1" xmlns="http://www.w3.org/2000/svg" p-id="18245" width="128" height="128"><path d="M512 0a512 512 0 1 0 512 512A512 512 0 0 0 512 0z m0 853.333333a68.266667 68.266667 0 1 1 68.266667-68.266666 68.266667 68.266667 0 0 1-68.266667 68.266666z m68.266667-256a51.2 51.2 0 0 1-51.2 51.2h-34.133334a51.2 51.2 0 0 1-51.2-51.2v-375.466666A51.2 51.2 0 0 1 494.933333 170.666667h34.133334A51.2 51.2 0 0 1 580.266667 221.866667z" fill="#D44152" p-id="18246"></path></svg>