<svg t="1625102714156" class="icon" viewBox="0 0 1024 1024" version="1.1" xmlns="http://www.w3.org/2000/svg" p-id="2179" width="128" height="128"><path d="M516.1984 962.9184c-248.32 0-450.3552-202.0352-450.3552-450.3552 0-248.32 202.0352-450.3552 450.3552-450.3552 248.32 0 450.3552 202.0352 450.3552 450.3552 0 248.32-202.0352 450.3552-450.3552 450.3552z m0-839.2704c-214.4768 0-388.9152 174.4896-388.9152 388.9152 0 214.4768 174.4896 388.9152 388.9152 388.9152 214.4768 0 388.9152-174.4896 388.9152-388.9152 0-214.4768-174.4896-388.9152-388.9152-388.9152z" fill="#5866D2" p-id="2180"></path><path d="M562.1248 278.4256H436.1216v287.2832h126.0032c79.3088 0 143.616-64.3072 143.616-143.616 0-79.36-64.3072-143.6672-143.616-143.6672z" fill="#CAE2FF" p-id="2181"></path><path d="M562.1248 247.7056H436.1216c-16.9472 0-30.72 13.7728-30.72 30.72V793.1904c0 16.9472 13.7728 30.72 30.72 30.72s30.72-13.7728 30.72-30.72v-196.7616h95.2832c96.1536 0 174.336-78.2336 174.336-174.336 0-96.1536-78.1824-174.3872-174.336-174.3872z m0 287.2832H466.8416V309.1456h95.2832c62.2592 0 112.896 50.6368 112.896 112.896s-50.6368 112.9472-112.896 112.9472z" fill="#5866D2" p-id="2182"></path></svg>