<svg t="1625551907453" class="icon" viewBox="0 0 1024 1024" version="1.1" xmlns="http://www.w3.org/2000/svg" p-id="2424" width="128" height="128"><path d="M512 938.666667A427.064889 427.064889 0 0 1 85.333333 512c0-235.292444 191.317333-426.666667 426.666667-426.666667 235.292444 0 426.666667 191.317333 426.666667 426.609778 0 235.349333-191.374222 426.723556-426.666667 426.723556" fill="#FFFFFF" p-id="2425"></path><path d="M512 113.777778c219.534222 0 398.222222 178.574222 398.222222 398.222222 0 219.591111-178.688 398.222222-398.222222 398.222222-219.591111 0-398.222222-178.631111-398.222222-398.222222 0-219.648 178.631111-398.222222 398.222222-398.222222m0-56.888889a455.111111 455.111111 0 0 0-455.111111 455.111111 455.111111 455.111111 0 1 0 910.222222 0 455.111111 455.111111 0 0 0-455.111111-455.111111" fill="#EA5514" p-id="2426"></path><path d="M311.466667 752.014222a54.613333 54.613333 0 1 1 0-109.340444h83.968L640.568889 501.191111l30.321778 141.482667h41.642666a54.613333 54.613333 0 1 1 0 109.340444h-401.066666z m294.286222-413.070222l18.716444 87.267556-256.682666 148.195555 24.007111-111.900444 213.959111-123.562667z m-20.821333-97.336889l4.835555 22.357333-177.379555 102.4 26.737777-124.757333h145.806223z" fill="#EA5514" p-id="2427"></path></svg>