<svg t="1625651264043" class="icon" viewBox="0 0 1024 1024" version="1.1" xmlns="http://www.w3.org/2000/svg" p-id="19295" width="128" height="128"><path d="M651.8 903.2c123.6 0 223.7-100.2 223.7-223.7S775.4 455.7 651.8 455.7 428.1 555.9 428.1 679.5s100.2 223.7 223.7 223.7z m0 55.9c-154.5 0-279.7-125.2-279.7-279.7s125.2-279.7 279.7-279.7 279.7 125.2 279.7 279.7-125.2 279.7-279.7 279.7zM260.3 595.6h55.9c15.4 0 28 12.5 28 28s-12.5 28-28 28h-55.9c-15.4 0-28-12.5-28-28s12.6-28 28-28z m0-167.8h167.8c15.4 0 28 12.5 28 28 0 15.4-12.5 28-28 28H260.3c-15.4 0-28-12.5-28-28s12.6-28 28-28z m0-167.8h335.6c15.4 0 28 12.5 28 28 0 15.4-12.5 28-28 28H260.3c-15.4 0-28-12.5-28-28s12.6-28 28-28z m115 587.3c15.4 0 28 12.5 28 28s-12.5 28-28 28h-143c-77.2 0-139.8-62.6-139.8-139.8V204c0-77.2 62.6-139.8 139.8-139.8h503.4c77.2 0 139.8 62.6 139.8 139.8v196.6c0 15.4-12.5 28-28 28-15.4 0-28-12.5-28-28V204c0-46.3-37.6-83.9-83.9-83.9H232.3c-46.3 0-83.9 37.6-83.9 83.9v559.3c0 46.3 37.6 83.9 83.9 83.9h143z m304.5-211.2V788c0 15.4-12.5 28-28 28s-28-12.5-28-28V636.1L590 669.9c-10.9 10.9-28.6 10.9-39.6 0s-10.9-28.6 0-39.6l79.1-79.1c6.1-6.1 14.2-8.8 22.2-8.1 7.9-0.7 16.1 2 22.2 8.1l79.1 79.1c10.9 10.9 10.9 28.6 0 39.6-10.9 10.9-28.6 10.9-39.6 0l-33.6-33.8z" fill="#1485FF" p-id="19296"></path></svg>