<svg t="1624528233175" class="icon" viewBox="0 0 1024 1024" version="1.1" xmlns="http://www.w3.org/2000/svg" p-id="10770" width="128" height="128"><path d="M512 512m-512 0a512 512 0 1 0 1024 0 512 512 0 1 0-1024 0Z" fill="#ECA054" fill-opacity=".304" p-id="10771"></path><path d="M512 523.377778m-409.6 0a409.6 409.6 0 1 0 819.2 0 409.6 409.6 0 1 0-819.2 0Z" fill="#ECA054" p-id="10772"></path><path d="M495.593244 394.24h36.727467a15.303111 15.303111 0 0 0 0-30.606222h-36.727467a15.303111 15.303111 0 0 0 0 30.606222z" fill="#FFFFFF" p-id="10773"></path><path d="M651.696356 363.633778h-36.909512a15.303111 15.303111 0 0 0 0 30.606222h36.909512c8.453689 0 15.303111 6.849422 15.303111 15.303111v266.285511c0 8.453689-6.849422 15.314489-15.303111 15.314489H376.2176a15.303111 15.303111 0 0 1-15.303111-15.314489V409.543111c0-8.453689 6.849422-15.314489 15.303111-15.314489h33.678222a15.303111 15.303111 0 1 0 0-30.606222h-33.678222a45.909333 45.909333 0 0 0-45.909333 45.920711v266.285511a45.909333 45.909333 0 0 0 45.909333 45.920711h275.478756a45.909333 45.909333 0 0 0 45.920711-45.920711V409.543111a45.909333 45.909333 0 0 0-45.920711-45.920711z" fill="#FFFFFF" p-id="10774"></path><path d="M452.676267 329.955556c10.205867 0 15.314489 5.097244 15.314489 15.303111v67.345066c0 10.194489-5.108622 15.303111-15.314489 15.303111-10.194489 0-15.303111-5.108622-15.303111-15.303111v-67.345066c0-10.205867 5.108622-15.303111 15.303111-15.303111zM609.245867 547.271111a15.303111 15.303111 0 0 0-21.640534 0l-45.454222 45.340445-45.454222-45.329067a15.303111 15.303111 0 0 0-21.640533 0l-56.263112 56.160711a15.303111 15.303111 0 0 0 21.640534 21.640533l45.454222-45.454222L531.342222 625.095111a15.303111 15.303111 0 0 0 21.640534 0l56.263111-56.376889a15.303111 15.303111 0 0 0 0-21.424355zM330.365156 473.816178c0-10.205867 5.108622-15.303111 15.303111-15.303111h336.702577c10.205867 0 15.303111 5.097244 15.303112 15.303111s-5.097244 15.303111-15.303112 15.303111H345.656889c-10.194489 0-15.303111-5.097244-15.303111-15.303111zM574.998756 329.955556c10.194489 0 15.303111 5.097244 15.303111 15.303111v67.345066c0 10.194489-5.108622 15.303111-15.303111 15.303111-10.205867 0-15.314489-5.108622-15.314489-15.303111v-67.345066c0-10.205867 5.108622-15.303111 15.314489-15.303111z" fill="#FFFFFF" p-id="10775"></path></svg>