<svg t="1624528439549" class="icon" viewBox="0 0 1041 1024" version="1.1" xmlns="http://www.w3.org/2000/svg" p-id="13631" width="128" height="128"><path d="M520.533333 512m-512 0a512 512 0 1 0 1024 0 512 512 0 1 0-1024 0Z" fill="#FF9F9A" p-id="13632"></path><path d="M433.2544 661.828267c0-23.4496 3.6864-46.08 10.683733-67.328a222.464 222.464 0 0 1 29.866667-59.153067 234.222933 234.222933 0 0 1 45.738667-47.786667c17.2032-14.045867 36.864-24.917333 57.856-33.3824 1.450667-3.191467 2.321067-6.331733 4.266666-11.349333l3.191467-8.6528c0.477867-2.679467 1.450667-5.376 2.321067-7.594667 4.266667-1.4336 7.9872-3.652267 11.5712-6.843733 3.2256-2.696533 6.007467-6.826667 8.840533-11.7248 2.321067-4.983467 4.266667-12.219733 5.154133-20.753067 0.4608-6.3488 0.4608-11.7248-0.477866-16.247466-1.365333-4.5056-2.321067-8.055467-4.266667-10.8544a23.432533 23.432533 0 0 0-6.997333-7.714134c0-16.725333-1.450667-32.9728-3.191467-48.759466a283.477333 283.477333 0 0 0-10.7008-44.2368 119.227733 119.227733 0 0 0-23.3472-42.410667 100.7104 100.7104 0 0 0-19.063467-16.725333 179.131733 179.131733 0 0 0-27.409066-14.916267 238.762667 238.762667 0 0 0-33.0752-10.410667 155.733333 155.733333 0 0 0-35.3792-4.113066c-9.3184 0-19.063467 0.853333-29.354667 2.286933a132.232533 132.232533 0 0 0-30.8224 8.072533 134.263467 134.263467 0 0 0-29.8496 16.7424c-9.352533 6.826667-18.193067 15.872-26.5216 27.101867a125.610667 125.610667 0 0 0-19.080533 39.714133c-4.266667 14.916267-6.997333 28.859733-8.840534 41.557334a481.143467 481.143467 0 0 0-2.321066 45.568 44.288 44.288 0 0 0-7.970134 12.578133c-1.860267 4.522667-3.242667 9.506133-3.703466 14.916267-0.477867 5.376 0.477867 11.7248 2.321066 18.568533a42.666667 42.666667 0 0 0 7.509334 15.872c2.816 3.669333 5.546667 6.826667 7.970133 8.6528 3.2256 1.826133 6.024533 3.140267 8.840533 4.113067 1.860267 6.3488 4.266667 12.578133 6.024534 18.568533 1.8432 5.376 4.266667 10.410667 6.997333 15.377067 2.321067 4.983467 5.546667 9.045333 8.840533 11.7248 6.997333 5.888 13.533867 11.3664 19.080534 16.7424 5.546667 5.376 8.840533 13.1584 9.813333 22.1184 0.477867 6.843733 0.477867 12.219733 0.477867 17.595733 0 5.034667-1.450667 9.898667-3.242667 14.916267a54.954667 54.954667 0 0 1-10.2912 14.916266c-4.744533 4.983467-11.1616 9.898667-20.1216 15.377067-6.997333 4.522667-15.36 8.072533-24.2176 11.332267-8.840533 3.191467-18.193067 5.870933-27.511467 8.635733-9.813333 2.696533-19.063467 5.376-28.023466 8.072533-8.840533 3.191467-17.220267 6.8096-24.6784 11.3664-7.509333 5.0176-13.994667 10.3936-19.080534 16.725334-5.137067 6.3488-8.362667 14.421333-10.2912 24.354133-4.266667 26.1632-5.154133 47.394133-2.833066 64.017067 2.321067 16.7424 5.546667 26.641067 10.2912 29.832533 2.833067 1.826133 8.8576 4.130133 18.210133 5.870933 9.352533 1.8432 20.992 4.130133 34.5088 5.888 13.994667 2.286933 28.893867 4.113067 45.7216 5.870934 16.725333 1.8432 33.6384 3.669333 50.346667 5.0176 17.3056 1.365333 33.655467 2.218667 49.493333 3.089066 15.837867 0.853333 29.866667 1.4336 42.018133 1.4336h16.418134a239.530667 239.530667 0 0 1-23.3472-53.742933 214.562133 214.562133 0 0 1-8.362667-59.904z" fill="#FFFFFF" p-id="13633"></path><path d="M845.858133 589.6192a196.266667 196.266667 0 0 0-42.018133-60.4672 197.393067 197.393067 0 0 0-61.952-40.584533 195.362133 195.362133 0 0 0-76.066133-14.916267c-27.050667 0-52.718933 4.983467-76.424534 14.916267a195.140267 195.140267 0 0 0-61.952 40.584533 194.082133 194.082133 0 0 0-42.0352 60.4672 177.783467 177.783467 0 0 0-15.36 73.557333c0 26.180267 5.137067 50.5856 15.36 73.557334a196.266667 196.266667 0 0 0 42.018134 60.484266 197.393067 197.393067 0 0 0 138.3936 55.5008c26.9312 0 52.206933-4.983467 76.049066-14.916266a195.140267 195.140267 0 0 0 61.952-40.584534c17.8176-17.1008 31.6928-37.495467 42.0352-60.4672 10.2912-23.0912 15.36-47.394133 15.36-73.557333 0-26.077867-5.137067-50.4832-15.36-73.557333z m-126.378666 157.405867c-7.509333 0-14.984533-2.8672-20.650667-8.448l-58.129067-57.719467a28.3648 28.3648 0 0 1-8.567466-20.292267V545.450667c0-15.940267 13.021867-28.740267 29.0816-28.740267s29.0816 12.868267 29.0816 28.740267v103.287466l49.698133 49.152a28.501333 28.501333 0 0 1 0 40.686934 29.269333 29.269333 0 0 1-20.514133 8.448z" fill="#FFFFFF" p-id="13634"></path></svg>