<svg t="1624528336565" class="icon" viewBox="0 0 1024 1024" version="1.1" xmlns="http://www.w3.org/2000/svg" p-id="11890" width="128" height="128"><path d="M860.574 356.978c14.48 40.598 22.238 84.299 22.238 129.68 0 214.239-174.287 388.526-388.525 388.526-214.11 0-388.396-174.287-388.396-388.525 0-214.11 174.287-388.396 388.525-388.396 66.457 0 129.035 16.808 183.855 46.286l54.95-46.674c-19.524-12.024-39.952-22.497-61.156-31.548-56.243-23.79-115.976-35.814-177.649-35.814S373.01 42.537 316.768 66.327c-54.303 23.014-103.176 55.855-145.067 97.746-41.762 41.89-74.731 90.763-97.745 145.066-23.79 56.243-35.815 115.976-35.815 177.52 0 61.543 12.025 121.276 35.815 177.648C96.97 718.61 129.81 767.483 171.7 809.374c41.89 41.89 90.634 74.731 145.067 97.745 56.242 23.79 115.975 35.814 177.648 35.814 61.544 0 121.277-12.024 177.649-35.814 54.303-23.014 103.175-55.854 145.066-97.745 41.891-41.891 74.732-90.635 97.746-145.067 23.79-56.242 35.814-115.976 35.814-177.648 0-61.027-11.895-120.114-35.168-175.968l-54.95 46.287z m0 0" p-id="11891" fill="#d81e06"></path><path d="M494.416 202.731c-75.895 0-147.135 29.48-200.792 83.136-53.656 53.656-83.135 124.897-83.135 200.792s29.479 147.135 83.135 200.792c53.657 53.656 124.897 83.135 200.792 83.135s147.136-29.479 200.792-83.135c53.657-53.657 83.135-124.897 83.135-200.792 0-23.273-2.844-46.029-8.145-68.008h-0.905c-3.62 0-7.24-0.388-10.99-1.035l-45.252-6.464-12.413 10.472c6.465 20.558 9.956 42.408 9.956 65.035 0 119.208-96.97 216.177-216.307 216.177-119.208 0-216.178-96.97-216.178-216.177 0-119.208 96.97-216.178 216.178-216.178 33.487 0 65.293 7.628 93.737 21.333l14.093-11.895-0.258-45.382c-0.13-3.49 0.258-6.981 0.775-10.472C568.76 210.1 532.17 202.73 494.416 202.73z m0 0" p-id="11892" fill="#d81e06"></path><path d="M984.178 159.935c-2.069-7.11-8.016-12.412-15.386-13.446l-67.103-10.214 0.776-68.267c0.129-7.37-4.138-14.093-10.861-17.325-6.723-3.103-14.61-2.069-20.17 2.715l-206.61 175.063c-4.137 3.49-6.594 8.662-6.723 14.093l-0.905 62.707L537.6 406.626c-12.93-6.982-27.669-10.86-43.313-10.86-50.295 0-91.022 40.727-91.022 91.022 0 50.295 40.727 91.151 91.022 91.151 50.295 0 91.022-40.727 91.022-91.151 0-13.576-2.974-26.376-8.275-38.012l117.398-99.427 61.932 9.439c5.43 0.776 10.86-0.776 14.998-4.267l206.61-174.933c5.947-4.784 8.274-12.412 6.206-19.653z m0 0" p-id="11893" fill="#d81e06"></path></svg>