<svg t="1623920335297" class="icon" viewBox="0 0 1024 1024" version="1.1" xmlns="http://www.w3.org/2000/svg" p-id="12129" width="128" height="128"><path d="M512 32A409.92 409.92 0 0 0 104 441.6a417.6 417.6 0 0 0 113.28 282.24c64 66.24 234.24 209.28 293.12 258.56 58.88-48.96 229.44-192 293.76-258.88A407.04 407.04 0 0 0 512 32z" fill="#F44336" p-id="12130"></path><path d="M513.6 0a442.56 442.56 0 0 0-441.6 441.6 448 448 0 0 0 121.6 304c80 83.2 316.8 278.4 316.8 278.4s236.8-195.2 316.8-278.4a436.48 436.48 0 0 0 124.8-304A441.92 441.92 0 0 0 513.6 0z m290.56 723.52c-64 66.88-234.88 209.92-293.76 258.88-58.88-48.96-229.44-192-293.12-258.56a417.6 417.6 0 0 1-113.28-282.24 408 408 0 1 1 700.16 281.92z" fill="#FFFFFF" p-id="12131"></path><path d="M736 248.32H290.24A34.56 34.56 0 0 0 256 283.52v335.04a28.48 28.48 0 1 0 56.96 0v-85.12h398.08v85.44a27.2 27.2 0 0 0 25.92 28.48h2.56a29.12 29.12 0 0 0 28.48-28.48V284.16a34.56 34.56 0 0 0-32-35.84z m-195.52 57.28h56.96v56.96h-56.96z m-113.92 0h56.96v56.96h-56.96z m-113.92 0h56.96v56.96H312.96z m398.08 170.56H312.96v-56.64h398.08z m0-113.92h-56.64V305.6h56.96z" fill="#FFFFFF" p-id="12132"></path></svg>