<svg t="1630576470332" class="icon" viewBox="0 0 1024 1024" version="1.1" xmlns="http://www.w3.org/2000/svg" p-id="4267" width="200" height="200"><path d="M512 512m-512 0a512 512 0 1 0 1024 0 512 512 0 1 0-1024 0Z" fill="#0057A8" p-id="4268"></path><path d="M699.528533 769.297067H313.002667a20.48 20.48 0 0 1-20.48-20.48v-0.580267a20.48 20.48 0 0 1 20.48-20.48h386.525866a20.48 20.48 0 0 1 20.48 20.48v0.580267a20.48 20.48 0 0 1-20.48 20.48zM526.301867 273.8176V207.4624a21.162667 21.162667 0 0 0-20.992-21.026133H505.173333a21.1968 21.1968 0 0 0-21.026133 21.026133v66.3552a21.1968 21.1968 0 0 0 21.026133 21.026133 20.992 20.992 0 0 0 20.992-21.026133z m-207.9744 15.9744l39.5264 39.2192a21.1968 21.1968 0 0 0 29.730133 0 20.821333 20.821333 0 0 0 0-29.422933l-39.5264-39.185067a21.435733 21.435733 0 0 0-29.730133 0.273067 20.48 20.48 0 0 0 0 29.115733z m376.7296-29.115733a21.1968 21.1968 0 0 0-29.730134 0l-39.492266 39.185066a20.753067 20.753067 0 0 0 0 29.422934 21.128533 21.128533 0 0 0 29.696 0l39.5264-39.2192a20.753067 20.753067 0 0 0 0-29.3888z m-452.949334 168.311466l54.613334 12.5952a20.718933 20.718933 0 1 0 9.5232-40.311466l-54.613334-12.5952a20.718933 20.718933 0 1 0-9.5232 40.311466zM716.8 442.436267l54.101333-14.848a20.6848 20.6848 0 0 0 14.574934-25.4976 21.060267 21.060267 0 0 0-25.770667-14.5408l-54.101333 14.848a20.48 20.48 0 0 0-14.574934 25.463466 21.0944 21.0944 0 0 0 25.770667 14.574934zM659.899733 559.786667v139.195733h-307.2v-138.922667a310.135467 310.135467 0 0 1 4.778667-80.930133 148.138667 148.138667 0 0 1 69.802667-89.053867 159.709867 159.709867 0 0 1 50.722133-18.773333l19.3536-1.979733c5.870933 0 12.049067-0.273067 17.92-0.273067a264.3968 264.3968 0 0 1 36.727467 6.178133 150.186667 150.186667 0 0 1 103.424 103.901867 321.1264 321.1264 0 0 1 4.471466 80.657067z m-246.101333 12.9024a10.9568 10.9568 0 0 0 7.5776 3.072 11.4688 11.4688 0 0 0 7.5776-3.072l60.245333-59.392 26.658134 26.3168a10.6496 10.6496 0 0 0 15.121066 0l67.822934-66.935467a10.24 10.24 0 0 0 0-14.848 10.6496 10.6496 0 0 0-15.121067 0l-60.279467 59.665067-26.624-26.3168a10.6496 10.6496 0 0 0-15.121066 0l-67.857067 66.6624a10.24 10.24 0 0 0 0 14.848z m201.8304 30.5152a10.4448 10.4448 0 0 0-10.6496-10.24h-197.3248a10.581333 10.581333 0 0 0-10.6496 10.24 10.410667 10.410667 0 0 0 10.6496 10.24h197.3248a10.4448 10.4448 0 0 0 10.6496-10.24z m0 0" fill="#FFFFFF" p-id="4269"></path></svg>